<svg width="24" height="24" viewBox="0 0 24 24" fill="none" xmlns="http://www.w3.org/2000/svg">
<path d="M11.999 4.5C13.9875 4.50248 15.8947 5.29312 17.3008 6.69922C18.619 8.01745 19.3961 9.7758 19.4902 11.6289L19.5 12.001C19.4998 13.484 19.0603 14.9339 18.2363 16.167C17.4122 17.4003 16.2405 18.361 14.8701 18.9287C13.4997 19.4963 11.9919 19.6448 10.5371 19.3555C9.08225 19.0661 7.74518 18.3526 6.69629 17.3037C5.6474 16.2548 4.93392 14.9177 4.64453 13.4629C4.35519 12.0081 4.50366 10.5003 5.07129 9.12988C5.63895 7.7595 6.59968 6.58776 7.83301 5.76367C9.06611 4.93974 10.516 4.50019 11.999 4.5Z" fill="#DDDBFA" stroke="#281ED2"/>
</svg>
