<svg width="16" height="16" viewBox="0 0 16 16" fill="none" xmlns="http://www.w3.org/2000/svg">
<path d="M4.03671 6.22395C3.99547 6.18853 3.94695 6.16084 3.89394 6.14246C3.84092 6.12408 3.78444 6.11537 3.72772 6.11683C3.671 6.11828 3.61516 6.12988 3.56337 6.15096C3.51158 6.17203 3.46487 6.20217 3.4259 6.23965C3.38693 6.27713 3.35646 6.32123 3.33624 6.36941C3.31601 6.41759 3.30643 6.46893 3.30803 6.52048C3.30964 6.57203 3.3224 6.62278 3.34559 6.66985C3.36877 6.71692 3.40194 6.75938 3.44318 6.7948L7.33093 10.1319C7.41114 10.2009 7.51733 10.2393 7.6277 10.2393C7.73807 10.2393 7.84426 10.2009 7.92446 10.1319L11.8127 6.7948C11.8548 6.75961 11.8888 6.71716 11.9128 6.66992C11.9367 6.62268 11.9501 6.57159 11.9521 6.51961C11.9542 6.46763 11.9448 6.4158 11.9246 6.36714C11.9044 6.31847 11.8738 6.27394 11.8345 6.23612C11.7952 6.1983 11.748 6.16796 11.6957 6.14685C11.6434 6.12574 11.587 6.11429 11.5298 6.11316C11.4726 6.11202 11.4157 6.12123 11.3625 6.14025C11.3092 6.15927 11.2606 6.18772 11.2196 6.22395L7.6277 9.30669L4.03671 6.22395Z" fill="#130E67"/>
</svg>
