<svg width="26" height="26" viewBox="0 0 26 26" fill="none" xmlns="http://www.w3.org/2000/svg">
<path d="M14.5068 11.6797C14.5834 12.0307 14.6655 12.3604 14.7578 12.6689C15.0654 13.6967 15.492 14.5561 16.168 15.2383C16.9892 16.0669 18.0873 16.5345 19.4883 16.8467C18.0874 17.1589 16.9892 17.6265 16.168 18.4551C15.492 19.1372 15.0654 19.9968 14.7578 21.0244C14.6617 21.3454 14.5762 21.6895 14.4971 22.0566C14.4164 21.6947 14.3303 21.356 14.2334 21.04C13.9212 20.0216 13.4928 19.1745 12.8184 18.501C12.1434 17.8269 11.2983 17.4029 10.2861 17.0977C10.0118 17.0149 9.72065 16.9398 9.41211 16.8701C10.8646 16.558 11.9994 16.0892 12.8428 15.2393C13.5193 14.5575 13.9463 13.6979 14.2549 12.6699C14.3476 12.3611 14.43 12.031 14.5068 11.6797ZM22.4443 16.3975H22.4414C22.4437 16.3972 22.446 16.3967 22.4482 16.3965L22.4443 16.3975ZM7.11621 8.14941C7.22914 8.36262 7.37056 8.5646 7.55371 8.74609C7.76599 8.95637 8.0052 9.11164 8.25879 9.23145C8.00997 9.35115 7.77476 9.5031 7.56543 9.70605C7.3943 9.872 7.25941 10.0549 7.14941 10.248C7.03738 10.0399 6.89862 9.84279 6.71875 9.66504C6.49849 9.44747 6.24859 9.28806 5.98438 9.16504C6.23629 9.04772 6.47627 8.89902 6.68945 8.69727C6.86561 8.5305 7.00318 8.34533 7.11621 8.14941ZM12.4365 3.11523C12.4706 3.15099 12.5055 3.18479 12.541 3.2168C12.5003 3.25211 12.4607 3.28996 12.4219 3.33008C12.4099 3.34246 12.3982 3.35562 12.3867 3.36816C12.3767 3.35742 12.3678 3.34557 12.3574 3.33496C12.3184 3.29501 12.2782 3.2578 12.2373 3.22266C12.2758 3.18824 12.3138 3.15209 12.3506 3.11328C12.3654 3.0976 12.3785 3.08039 12.3926 3.06445C12.4073 3.08109 12.421 3.09889 12.4365 3.11523Z" stroke="#525252" stroke-width="2"/>
</svg>
