<svg width="16" height="16" viewBox="0 0 16 16" fill="none" xmlns="http://www.w3.org/2000/svg">
<path d="M14.3859 4.19993L5.75539 13.1897C5.7053 13.242 5.64581 13.2834 5.58032 13.3117C5.51484 13.34 5.44465 13.3545 5.37376 13.3545C5.30288 13.3545 5.23269 13.34 5.16721 13.3117C5.10172 13.2834 5.04223 13.242 4.99214 13.1897L1.2163 9.2567C1.11509 9.15127 1.05823 9.00828 1.05823 8.85918C1.05823 8.71008 1.11509 8.56709 1.2163 8.46166C1.31752 8.35623 1.45479 8.297 1.59793 8.297C1.74107 8.297 1.87835 8.35623 1.97956 8.46166L5.37376 11.9979L13.6226 3.40489C13.7238 3.29946 13.8611 3.24023 14.0042 3.24023C14.1474 3.24023 14.2847 3.29946 14.3859 3.40489C14.4871 3.51032 14.5439 3.65331 14.5439 3.80241C14.5439 3.95151 14.4871 4.0945 14.3859 4.19993Z" fill="#0A0A0A" stroke="#0A0A0A" stroke-width="0.5"/>
</svg>
