<svg width="16" height="16" viewBox="0 0 16 16" fill="none" xmlns="http://www.w3.org/2000/svg">
<path d="M11.7072 5.86618L6.58742 11.1991C6.5577 11.2301 6.52241 11.2547 6.48356 11.2715C6.44472 11.2882 6.40308 11.2969 6.36103 11.2969C6.31898 11.2969 6.27734 11.2882 6.23849 11.2715C6.19965 11.2547 6.16436 11.2301 6.13464 11.1991L3.89474 8.86596C3.8347 8.80342 3.80096 8.71859 3.80096 8.63014C3.80096 8.5417 3.8347 8.45687 3.89474 8.39433C3.95478 8.33179 4.03622 8.29665 4.12113 8.29665C4.20604 8.29665 4.28748 8.33179 4.34752 8.39433L6.36103 10.4921L11.2544 5.39455C11.3145 5.33201 11.3959 5.29687 11.4808 5.29688C11.5657 5.29688 11.6471 5.33201 11.7072 5.39455C11.7672 5.4571 11.801 5.54192 11.801 5.63037C11.801 5.71882 11.7672 5.80364 11.7072 5.86618Z" fill="#0A0A0A"/>
</svg>
