<svg width="26" height="26" viewBox="0 0 26 26" fill="none" xmlns="http://www.w3.org/2000/svg">
<path d="M16.6563 7.31295C15.961 7.31253 15.2689 7.40579 14.5986 7.59022C14.334 7.15848 14.0125 6.76427 13.6429 6.41819L14.6088 5.03998C14.67 4.95256 14.7134 4.85393 14.7365 4.74973C14.7596 4.64553 14.7619 4.5378 14.7434 4.43269C14.7249 4.32759 14.6858 4.22716 14.6285 4.13714C14.5711 4.04713 14.4966 3.96929 14.4092 3.90807C14.3218 3.84685 14.2231 3.80345 14.1189 3.78035C14.0147 3.75725 13.907 3.7549 13.8019 3.77343C13.6968 3.79196 13.5964 3.83101 13.5063 3.88836C13.4163 3.9457 13.3385 4.02021 13.2773 4.10764L12.3114 5.48483C11.5172 5.0838 10.6398 4.87506 9.75 4.87545C9.6911 4.87545 9.63219 4.87545 9.57329 4.87545L9.27977 3.221C9.26436 3.1132 9.22745 3.00959 9.17121 2.91634C9.11497 2.82309 9.04056 2.74209 8.9524 2.67816C8.86424 2.61424 8.76413 2.56869 8.65802 2.54422C8.5519 2.51975 8.44195 2.51686 8.3347 2.53572C8.22745 2.55458 8.12508 2.59481 8.03369 2.65402C7.94229 2.71323 7.86373 2.7902 7.80267 2.88037C7.74161 2.97054 7.6993 3.07206 7.67826 3.17891C7.65721 3.28575 7.65786 3.39574 7.68016 3.50233L7.97266 5.16186C7.07155 5.4599 6.25917 5.97833 5.6093 6.67006L4.22602 5.70217C4.13866 5.63945 4.03972 5.59469 3.93494 5.5705C3.83015 5.5463 3.7216 5.54315 3.61559 5.56122C3.50958 5.5793 3.40821 5.61823 3.31736 5.67578C3.22651 5.73333 3.14798 5.80834 3.08634 5.89647C3.0247 5.98459 2.98117 6.08408 2.95827 6.18915C2.93537 6.29423 2.93356 6.40281 2.95294 6.50859C2.97232 6.61437 3.01251 6.71525 3.07117 6.80539C3.12984 6.89552 3.20581 6.97311 3.29469 7.03366L4.67188 8.00053C4.26943 8.79463 4.06061 9.6727 4.0625 10.563C4.0625 10.6208 4.0625 10.6797 4.0625 10.7376L2.40805 11.0301C2.2078 11.0652 2.02797 11.1741 1.90407 11.3353C1.78017 11.4965 1.7212 11.6983 1.7388 11.9008C1.7564 12.1033 1.84929 12.2919 1.99914 12.4293C2.14899 12.5667 2.3449 12.6429 2.54821 12.643C2.59552 12.6429 2.64275 12.6388 2.68938 12.6308L4.34688 12.3383C4.49251 12.7817 4.69241 13.2053 4.94203 13.5997C4.16487 14.3215 3.62308 15.2607 3.38721 16.2948C3.15135 17.329 3.23235 18.4102 3.61966 19.3976C4.00697 20.3851 4.68265 21.233 5.55869 21.8311C6.43474 22.4291 7.47056 22.7495 8.53125 22.7505H16.6563C18.7034 22.7505 20.6667 21.9372 22.1142 20.4897C23.5618 19.0421 24.375 17.0788 24.375 15.0317C24.375 12.9846 23.5618 11.0213 22.1142 9.57372C20.6667 8.12618 18.7034 7.31295 16.6563 7.31295ZM5.6875 10.563C5.68799 9.70257 5.96162 8.86456 6.46897 8.16968C6.97632 7.47481 7.69118 6.95895 8.51054 6.69645C9.32989 6.43394 10.2114 6.43835 11.0281 6.70904C11.8448 6.97973 12.5545 7.50272 13.0548 8.20264C11.3974 9.07486 10.1122 10.5181 9.43719 12.2651C8.3691 12.0808 7.27016 12.2286 6.28875 12.6887C5.89583 12.0492 5.68772 11.3135 5.6875 10.563ZM16.6563 21.1255H8.53125C8.03118 21.1245 7.53662 21.021 7.07814 20.8214C6.61966 20.6217 6.20701 20.3301 5.86571 19.9646C5.52441 19.5991 5.26171 19.1675 5.09385 18.6965C4.926 18.2254 4.85656 17.7249 4.88983 17.226C4.9231 16.727 5.05837 16.2402 5.28727 15.7956C5.51618 15.351 5.83386 14.958 6.22066 14.6411C6.60746 14.3242 7.05517 14.0899 7.5361 13.9529C8.01703 13.8159 8.52096 13.779 9.01672 13.8444C8.97914 14.0851 8.95274 14.3309 8.93852 14.5787C8.92613 14.7942 8.99985 15.0058 9.14346 15.1669C9.28707 15.3281 9.48881 15.4256 9.7043 15.438C9.91979 15.4503 10.1314 15.3766 10.2925 15.233C10.4536 15.0894 10.5511 14.8877 10.5635 14.6722C10.5863 14.2669 10.6503 13.865 10.7545 13.4727C10.7545 13.4565 10.7636 13.4402 10.7666 13.424C11.0653 12.3265 11.6648 11.3344 12.4975 10.5597C13.3302 9.78501 14.3629 9.25852 15.479 9.03971C16.5951 8.82091 17.7501 8.9185 18.8137 9.32146C19.8772 9.72443 20.8069 10.4167 21.4978 11.3202C22.1887 12.2236 22.6133 13.3022 22.7236 14.4342C22.8338 15.5662 22.6254 16.7065 22.1219 17.7263C21.6183 18.7461 20.8397 19.6048 19.8739 20.2054C18.9081 20.8061 17.7936 21.1247 16.6563 21.1255Z" fill="#525252"/>
</svg>
