<svg width="24" height="24" viewBox="0 0 24 24" fill="none" xmlns="http://www.w3.org/2000/svg">
<path d="M4.5 4.25H19.5C19.9641 4.25 20.4091 4.43451 20.7373 4.7627C21.0655 5.09088 21.25 5.53587 21.25 6V16.5C21.25 16.9641 21.0655 17.4091 20.7373 17.7373C20.4091 18.0655 19.9641 18.25 19.5 18.25H12.25V20.75H15C15.0663 20.75 15.1299 20.7764 15.1768 20.8232C15.2236 20.8701 15.25 20.9337 15.25 21C15.25 21.0663 15.2236 21.1299 15.1768 21.1768C15.1299 21.2236 15.0663 21.25 15 21.25H9C8.9337 21.25 8.87013 21.2236 8.82324 21.1768C8.77636 21.1299 8.75 21.0663 8.75 21C8.75 20.9337 8.77636 20.8701 8.82324 20.8232C8.87013 20.7764 8.9337 20.75 9 20.75H11.75V18.25H4.5C4.03587 18.25 3.59088 18.0655 3.2627 17.7373C2.93451 17.4091 2.75 16.9641 2.75 16.5V6C2.75 5.53587 2.93451 5.09088 3.2627 4.7627C3.59088 4.43451 4.03587 4.25 4.5 4.25ZM3.25 16.5C3.25 16.8315 3.38179 17.1494 3.61621 17.3838C3.85063 17.6182 4.16848 17.75 4.5 17.75H19.5C19.8315 17.75 20.1494 17.6182 20.3838 17.3838C20.6182 17.1494 20.75 16.8315 20.75 16.5V14.5H3.25V16.5ZM4.5 4.75C4.16848 4.75 3.85063 4.88179 3.61621 5.11621C3.38179 5.35063 3.25 5.66848 3.25 6V14H20.75V6C20.75 5.66848 20.6182 5.35063 20.3838 5.11621C20.1494 4.88179 19.8315 4.75 19.5 4.75H4.5Z" fill="#292929" stroke="#666666"/>
</svg>
