<svg width="24" height="24" viewBox="0 0 24 24" fill="none" xmlns="http://www.w3.org/2000/svg">
<path d="M6.47999 8.82659L2.67186 12L6.47999 15.1735C6.55784 15.2358 6.62249 15.313 6.67014 15.4006C6.71778 15.4882 6.74748 15.5845 6.75749 15.6837C6.7675 15.7829 6.75762 15.8831 6.72843 15.9785C6.69924 16.0739 6.65132 16.1624 6.58748 16.2391C6.52365 16.3157 6.44517 16.3788 6.35664 16.4247C6.26812 16.4706 6.17132 16.4984 6.07192 16.5065C5.97252 16.5146 5.87251 16.5027 5.77774 16.4717C5.68297 16.4406 5.59534 16.391 5.51999 16.3256L1.01999 12.5757C0.93555 12.5053 0.867617 12.4172 0.820998 12.3176C0.774379 12.2181 0.750214 12.1095 0.750214 11.9996C0.750214 11.8896 0.774379 11.781 0.820998 11.6815C0.867617 11.5819 0.93555 11.4938 1.01999 11.4235L5.51999 7.67346C5.6729 7.54616 5.87012 7.48481 6.06827 7.50292C6.26641 7.52103 6.44925 7.61711 6.57655 7.77002C6.70385 7.92294 6.7652 8.12016 6.74709 8.3183C6.72898 8.51645 6.6329 8.69928 6.47999 8.82659ZM22.98 11.4235L18.48 7.67346C18.4043 7.61043 18.3169 7.56292 18.2228 7.53366C18.1287 7.5044 18.0298 7.49396 17.9317 7.50292C17.8336 7.51189 17.7382 7.54009 17.651 7.58592C17.5638 7.63175 17.4865 7.69431 17.4234 7.77002C17.2961 7.92294 17.2348 8.12016 17.2529 8.3183C17.271 8.51645 17.3671 8.69928 17.52 8.82659L21.3281 12L17.52 15.1735C17.4421 15.2358 17.3775 15.313 17.3298 15.4006C17.2822 15.4882 17.2525 15.5845 17.2425 15.6837C17.2325 15.7829 17.2424 15.8831 17.2715 15.9785C17.3007 16.0739 17.3487 16.1624 17.4125 16.2391C17.4763 16.3157 17.5548 16.3788 17.6433 16.4247C17.7319 16.4706 17.8287 16.4984 17.9281 16.5065C18.0275 16.5146 18.1275 16.5027 18.2222 16.4717C18.317 16.4406 18.4046 16.391 18.48 16.3256L22.98 12.5757C23.0644 12.5053 23.1324 12.4172 23.179 12.3176C23.2256 12.2181 23.2498 12.1095 23.2498 11.9996C23.2498 11.8896 23.2256 11.781 23.179 11.6815C23.1324 11.5819 23.0644 11.4938 22.98 11.4235ZM15.2559 3.04502C15.1633 3.01141 15.065 2.99636 14.9667 3.00074C14.8683 3.00512 14.7717 3.02883 14.6824 3.07053C14.5932 3.11223 14.5131 3.1711 14.4466 3.24377C14.3801 3.31645 14.3286 3.4015 14.295 3.49409L8.29499 19.9941C8.26123 20.0867 8.24607 20.1851 8.25038 20.2836C8.25468 20.3821 8.27837 20.4788 8.32008 20.5681C8.36178 20.6575 8.4207 20.7377 8.49345 20.8043C8.5662 20.8708 8.65136 20.9224 8.74405 20.956C8.82622 20.9852 8.91278 21.0001 8.99999 21C9.15401 21 9.3043 20.9526 9.43043 20.8642C9.55657 20.7758 9.65243 20.6507 9.70499 20.506L15.705 4.00596C15.7386 3.91338 15.7536 3.81508 15.7493 3.71669C15.7449 3.61829 15.7212 3.52172 15.6795 3.43249C15.6378 3.34325 15.5789 3.26311 15.5062 3.19663C15.4336 3.13015 15.3485 3.07863 15.2559 3.04502Z" fill="#525252"/>
</svg>
