<svg width="190" height="170" viewBox="0 0 190 170" fill="none" xmlns="http://www.w3.org/2000/svg">
<path d="M95 140V90.5" stroke="#D1D1D1" stroke-width="5.33333" stroke-linecap="round" stroke-linejoin="round"/>
<path d="M112.171 31.1544C113.52 30.3885 115.04 29.9863 116.585 29.9863C118.131 29.9863 119.651 30.3885 121 31.1544L143.75 44.1344C145.361 45.0595 146.701 46.4024 147.634 48.0258C148.567 49.6492 149.058 51.495 149.058 53.3744C149.058 55.2538 148.567 57.0996 147.634 58.723C146.701 60.3464 145.361 61.6893 143.75 62.6144L77.7747 100.344C76.4216 101.128 74.8908 101.54 73.3331 101.54C71.7753 101.54 70.2445 101.128 68.8914 100.344L46.2497 87.3644C44.6385 86.4393 43.2981 85.0964 42.3655 83.473C41.4328 81.8496 40.9414 80.0038 40.9414 78.1244C40.9414 76.245 41.4328 74.3992 42.3655 72.7758C43.2981 71.1524 44.6385 69.8095 46.2497 68.8844L112.171 31.1544Z" stroke="#D1D1D1" stroke-width="4" stroke-linecap="round" stroke-linejoin="round"/>
<path d="M138.334 90.5V111.785C138.336 113.861 137.776 115.898 136.716 117.673C135.656 119.448 134.135 120.893 132.321 121.85L99.8212 138.79C98.3321 139.576 96.6785 139.986 95.0003 139.986C93.3221 139.986 91.6686 139.576 90.1795 138.79L57.6795 121.85C55.8654 120.893 54.3452 119.448 53.2848 117.673C52.2245 115.898 51.6649 113.861 51.667 111.785V90.5" stroke="#D1D1D1" stroke-width="4" stroke-linecap="round" stroke-linejoin="round"/>
<path d="M143.75 87.3658C145.361 86.4407 146.701 85.0979 147.634 83.4744C148.567 81.851 149.058 80.0053 149.058 78.1258C149.058 76.2464 148.567 74.4007 147.634 72.7772C146.701 71.1538 145.361 69.8109 143.75 68.8858L77.8289 31.1008C76.4849 30.3193 74.9631 29.9082 73.4143 29.9082C71.8656 29.9082 70.3437 30.3193 68.9997 31.1008L46.2497 44.1358C44.6385 45.061 43.2981 46.4038 42.3655 48.0272C41.4328 49.6507 40.9414 51.4964 40.9414 53.3758C40.9414 55.2553 41.4328 57.101 42.3655 58.7244C43.2981 60.3478 44.6385 61.6907 46.2497 62.6158L112.225 100.346C113.568 101.129 115.09 101.542 116.639 101.542C118.189 101.542 119.711 101.129 121.054 100.346L143.75 87.3658Z" stroke="#D1D1D1" stroke-width="4" stroke-linecap="round" stroke-linejoin="round"/>
</svg>
