<svg width="26" height="26" viewBox="0 0 26 26" fill="none" xmlns="http://www.w3.org/2000/svg">
<path d="M12.9998 7.58333V22.75M12.9998 7.58333C12.9998 6.43406 12.5433 5.33186 11.7306 4.5192C10.918 3.70655 9.81578 3.25 8.6665 3.25H3.24984C2.96252 3.25 2.68697 3.36414 2.4838 3.5673C2.28064 3.77047 2.1665 4.04602 2.1665 4.33333V18.4167C2.1665 18.704 2.28064 18.9795 2.4838 19.1827C2.68697 19.3859 2.96252 19.5 3.24984 19.5H9.74984C10.6118 19.5 11.4384 19.8424 12.0479 20.4519C12.6574 21.0614 12.9998 21.888 12.9998 22.75M12.9998 7.58333C12.9998 6.43406 13.4564 5.33186 14.269 4.5192C15.0817 3.70655 16.1839 3.25 17.3332 3.25H22.7498C23.0372 3.25 23.3127 3.36414 23.5159 3.5673C23.719 3.77047 23.8332 4.04602 23.8332 4.33333V18.4167C23.8332 18.704 23.719 18.9795 23.5159 19.1827C23.3127 19.3859 23.0372 19.5 22.7498 19.5H16.2498C15.3879 19.5 14.5612 19.8424 13.9517 20.4519C13.3422 21.0614 12.9998 21.888 12.9998 22.75" stroke="#666666" stroke-width="2" stroke-linecap="round" stroke-linejoin="round"/>
</svg>
