<svg width="26" height="26" viewBox="0 0 26 26" fill="none" xmlns="http://www.w3.org/2000/svg">
<path d="M17.7359 8.26382C17.4657 6.80854 16.8031 5.45473 15.8196 4.34854C14.8362 3.24236 13.5692 2.42584 12.1556 1.98714C10.7419 1.54845 9.23532 1.50424 7.79839 1.85931C6.36146 2.21437 5.04882 2.95521 4.00219 4.00183C2.95557 5.04845 2.21473 6.36109 1.85967 7.79802C1.50461 9.23495 1.54881 10.7416 1.98751 12.1552C2.42621 13.5689 3.24273 14.8358 4.34891 15.8193C5.45509 16.8027 6.80891 17.4653 8.26418 17.7355C8.53439 19.1908 9.197 20.5446 10.1805 21.6508C11.1639 22.757 12.4309 23.5735 13.8445 24.0122C15.2581 24.4509 16.7648 24.4951 18.2017 24.14C19.6386 23.785 20.9513 23.0441 21.9979 21.9975C23.0445 20.9509 23.7854 19.6383 24.1404 18.2013C24.4955 16.7644 24.4513 15.2578 24.0126 13.8441C23.5739 12.4305 22.7574 11.1636 21.6512 10.1801C20.545 9.19663 19.1912 8.53402 17.7359 8.26382ZM10.2264 13.8122L12.1875 15.7733C11.4136 16.0886 10.5857 16.2504 9.75004 16.2497C9.74934 15.414 9.91112 14.5861 10.2264 13.8122ZM13.6541 14.9426L11.0572 12.3456C11.4248 11.8582 11.8585 11.4244 12.346 11.0568L14.9429 13.6537C14.5753 14.1412 14.1415 14.575 13.6541 14.9426ZM15.7737 12.1872L13.8125 10.226C14.5865 9.91075 15.4144 9.74898 16.25 9.74968C16.2507 10.5854 16.089 11.4132 15.7737 12.1872ZM3.25004 9.74968C3.24692 8.16538 3.82254 6.63449 4.8687 5.44473C5.91486 4.25496 7.35953 3.48824 8.93121 3.28866C10.5029 3.08909 12.0933 3.47039 13.4037 4.36092C14.714 5.25145 15.654 6.58989 16.0469 8.12468C13.9636 8.17942 11.9809 9.03178 10.5077 10.5059C9.03461 11.9799 8.18353 13.9632 8.13012 16.0466C6.73432 15.6854 5.49787 14.8711 4.61468 13.7315C3.7315 12.592 3.25152 11.1914 3.25004 9.74968ZM16.25 22.7497C14.8089 22.7485 13.409 22.2692 12.2694 21.387C11.1299 20.5048 10.3153 19.2695 9.95317 17.8747C12.0373 17.8212 14.0214 16.9694 15.4956 15.4952C16.9698 14.021 17.8216 12.037 17.875 9.9528C19.4098 10.3458 20.7483 11.2857 21.6388 12.5961C22.5293 13.9064 22.9106 15.4968 22.7111 17.0685C22.5115 18.6402 21.7448 20.0849 20.555 21.131C19.3652 22.1772 17.8343 22.7528 16.25 22.7497Z" fill="#525252"/>
</svg>
