<svg width="26" height="26" viewBox="0 0 26 26" fill="none" xmlns="http://www.w3.org/2000/svg">
<g clip-path="url(#clip0_11122_742)">
<path d="M11.9082 16.0383C12.9971 15.3133 13.8239 14.2572 14.2661 13.026C14.7084 11.7948 14.7427 10.454 14.3641 9.20182C13.9854 7.94963 13.2137 6.85254 12.1633 6.07281C11.1129 5.29307 9.83941 4.87207 8.53121 4.87207C7.22301 4.87207 5.94953 5.29307 4.8991 6.07281C3.84867 6.85254 3.07706 7.94963 2.69836 9.20182C2.31967 10.454 2.354 11.7948 2.79628 13.026C3.23855 14.2572 4.0653 15.3133 5.15426 16.0383C3.18444 16.7643 1.50218 18.1078 0.358474 19.8682C0.298365 19.9576 0.256614 20.0579 0.235646 20.1636C0.214678 20.2692 0.214913 20.3779 0.236337 20.4834C0.25776 20.589 0.299945 20.6892 0.360439 20.7782C0.420933 20.8673 0.49853 20.9435 0.588719 21.0023C0.678908 21.0611 0.77989 21.1015 0.885795 21.1209C0.9917 21.1404 1.10042 21.1386 1.20562 21.1156C1.31083 21.0927 1.41043 21.0491 1.49863 20.9873C1.58684 20.9256 1.66188 20.8469 1.71941 20.7559C2.45715 19.6212 3.46665 18.6888 4.65623 18.0433C5.84581 17.3978 7.17779 17.0598 8.53121 17.0598C9.88463 17.0598 11.2166 17.3978 12.4062 18.0433C13.5958 18.6888 14.6053 19.6212 15.343 20.7559C15.4622 20.933 15.6463 21.0561 15.8555 21.0986C16.0647 21.141 16.2822 21.0995 16.461 20.9828C16.6398 20.8662 16.7655 20.6839 16.811 20.4753C16.8564 20.2668 16.818 20.0487 16.7039 19.8682C15.5602 18.1078 13.878 16.7643 11.9082 16.0383ZM4.06246 10.9683C4.06246 10.0845 4.32455 9.22047 4.81558 8.48559C5.30661 7.75071 6.00453 7.17794 6.82109 6.83971C7.63765 6.50148 8.53617 6.41298 9.40302 6.58541C10.2699 6.75784 11.0661 7.18344 11.6911 7.80841C12.3161 8.43337 12.7417 9.22963 12.9141 10.0965C13.0865 10.9633 12.998 11.8619 12.6598 12.6784C12.3216 13.495 11.7488 14.1929 11.0139 14.6839C10.279 15.175 9.41504 15.437 8.53121 15.437C7.34643 15.4357 6.21057 14.9645 5.37281 14.1267C4.53505 13.2889 4.0638 12.1531 4.06246 10.9683ZM25.4048 20.9925C25.2243 21.1102 25.0045 21.1514 24.7936 21.107C24.5828 21.0626 24.3982 20.9363 24.2805 20.7559C23.5436 19.6205 22.5343 18.6877 21.3445 18.0425C20.1546 17.3973 18.8222 17.0602 17.4687 17.062C17.2532 17.062 17.0466 16.9764 16.8942 16.8241C16.7418 16.6717 16.6562 16.465 16.6562 16.2495C16.6562 16.0341 16.7418 15.8274 16.8942 15.675C17.0466 15.5226 17.2532 15.437 17.4687 15.437C18.1268 15.4364 18.7766 15.2905 19.3718 15.0096C19.9669 14.7287 20.4927 14.3198 20.9115 13.8122C21.3303 13.3046 21.6318 12.7107 21.7945 12.0731C21.9572 11.4354 21.9771 10.7697 21.8527 10.1234C21.7282 9.47722 21.4626 8.86645 21.0748 8.33477C20.687 7.8031 20.1865 7.36364 19.6091 7.04781C19.0318 6.73198 18.3918 6.54756 17.7349 6.50773C17.078 6.46791 16.4205 6.57366 15.8092 6.81743C15.7095 6.86052 15.6022 6.88319 15.4936 6.88411C15.3851 6.88503 15.2774 6.86417 15.177 6.82278C15.0766 6.78138 14.9856 6.72029 14.9092 6.6431C14.8328 6.56592 14.7727 6.47421 14.7324 6.37339C14.6921 6.27258 14.6724 6.1647 14.6744 6.05614C14.6765 5.94758 14.7003 5.84053 14.7444 5.74133C14.7886 5.64213 14.8522 5.55278 14.9314 5.47856C15.0107 5.40434 15.104 5.34677 15.2059 5.30923C16.6049 4.7513 18.1609 4.73122 19.5738 5.25287C20.9867 5.77452 22.1564 6.80094 22.8572 8.13411C23.558 9.46728 23.7402 11.0127 23.3688 12.4723C22.9973 13.932 22.0985 15.2023 20.8457 16.0383C22.8155 16.7643 24.4977 18.1078 25.6414 19.8682C25.7591 20.0487 25.8003 20.2685 25.7559 20.4794C25.7116 20.6902 25.5853 20.8748 25.4048 20.9925Z" fill="#525252"/>
</g>
<defs>
<clipPath id="clip0_11122_742">
<rect width="26" height="26" fill="white"/>
</clipPath>
</defs>
</svg>
