<svg width="24" height="24" viewBox="0 0 24 24" fill="none" xmlns="http://www.w3.org/2000/svg">
<path d="M16.3716 7.62889C16.1221 6.28556 15.5105 5.03588 14.6027 4.01479C13.6949 2.9937 12.5254 2.23999 11.2205 1.83504C9.91559 1.43009 8.52486 1.38928 7.19847 1.71703C5.87207 2.04478 4.6604 2.72863 3.69429 3.69475C2.72818 4.66086 2.04433 5.87253 1.71658 7.19892C1.38883 8.52532 1.42963 9.91605 1.83458 11.2209C2.23953 12.5258 2.99324 13.6953 4.01433 14.6031C5.03543 15.511 6.2851 16.1226 7.62843 16.372C7.87785 17.7153 8.48949 18.965 9.3973 19.9861C10.3051 21.0072 11.4746 21.7609 12.7795 22.1659C14.0844 22.5708 15.4751 22.6116 16.8015 22.2839C18.1279 21.9561 19.3396 21.2723 20.3057 20.3062C21.2718 19.34 21.9557 18.1284 22.2834 16.802C22.6112 15.4756 22.5704 14.0849 22.1654 12.78C21.7605 11.4751 21.0067 10.3056 19.9857 9.39776C18.9646 8.48995 17.7149 7.87831 16.3716 7.62889ZM9.43968 12.7505L11.25 14.5608C10.5356 14.8518 9.7714 15.0011 9 15.0005C8.99935 14.229 9.14868 13.4649 9.43968 12.7505ZM12.6037 13.7939L10.2066 11.3967C10.5459 10.9468 10.9463 10.5463 11.3962 10.207L13.7934 12.6042C13.4541 13.0541 13.0537 13.4546 12.6037 13.7939ZM14.5603 11.2505L12.75 9.44014C13.4644 9.14914 14.2286 8.99981 15 9.00045C15.0006 9.77186 14.8513 10.536 14.5603 11.2505ZM3 9.00045C2.99712 7.53803 3.52845 6.1249 4.49414 5.02665C5.45982 3.92841 6.79337 3.22067 8.24415 3.03644C9.69493 2.85221 11.163 3.20419 12.3726 4.02622C13.5821 4.84825 14.4498 6.08372 14.8125 7.50045C12.8895 7.55099 11.0592 8.33777 9.69941 9.69846C8.3396 11.0591 7.55399 12.8899 7.50468 14.813C6.21625 14.4796 5.07491 13.728 4.25966 12.676C3.44441 11.6241 3.00136 10.3313 3 9.00045ZM15 21.0005C13.6698 20.9994 12.3775 20.557 11.3256 19.7426C10.2737 18.9283 9.52177 17.788 9.1875 16.5005C11.1113 16.4511 12.9428 15.6648 14.3036 14.304C15.6644 12.9432 16.4506 11.1118 16.5 9.18795C17.9167 9.55068 19.1522 10.4183 19.9742 11.6279C20.7963 12.8374 21.1482 14.3055 20.964 15.7563C20.7798 17.2071 20.072 18.5406 18.9738 19.5063C17.8755 20.472 16.4624 21.0033 15 21.0005Z" fill="#525252"/>
</svg>
