<svg width="24" height="24" viewBox="0 0 24 24" fill="none" xmlns="http://www.w3.org/2000/svg">
<path d="M16.5 21.7504C16.5 21.9494 16.421 22.1401 16.2803 22.2808C16.1397 22.4214 15.9489 22.5004 15.75 22.5004H8.25C8.05109 22.5004 7.86032 22.4214 7.71967 22.2808C7.57902 22.1401 7.5 21.9494 7.5 21.7504C7.5 21.5515 7.57902 21.3608 7.71967 21.2201C7.86032 21.0795 8.05109 21.0004 8.25 21.0004H15.75C15.9489 21.0004 16.1397 21.0795 16.2803 21.2201C16.421 21.3608 16.5 21.5515 16.5 21.7504ZM20.25 9.75044C20.2532 11.0007 19.9708 12.2352 19.4242 13.3597C18.8776 14.4842 18.0814 15.469 17.0963 16.2389C16.912 16.3801 16.7626 16.5615 16.6592 16.7693C16.5559 16.9772 16.5014 17.2059 16.5 17.4379V18.0004C16.5 18.3983 16.342 18.7798 16.0607 19.0611C15.7794 19.3424 15.3978 19.5004 15 19.5004H9C8.60218 19.5004 8.22065 19.3424 7.93934 19.0611C7.65804 18.7798 7.5 18.3983 7.5 18.0004V17.4379C7.49985 17.2086 7.44712 16.9824 7.34587 16.7766C7.24462 16.5709 7.09754 16.3911 6.91594 16.2511C5.93325 15.4857 5.13754 14.5069 4.58904 13.3886C4.04054 12.2703 3.75362 11.0419 3.75 9.79638C3.72563 5.32825 7.33688 1.60732 11.8013 1.50044C12.9013 1.47393 13.9955 1.66774 15.0195 2.07046C16.0434 2.47317 16.9765 3.07666 17.7638 3.8454C18.5511 4.61414 19.1766 5.5326 19.6035 6.54671C20.0305 7.56083 20.2503 8.65011 20.25 9.75044ZM18.75 9.75044C18.7503 8.85012 18.5704 7.95885 18.221 7.12909C17.8717 6.29932 17.3598 5.54783 16.7157 4.91886C16.0715 4.28988 15.308 3.79613 14.4701 3.46667C13.6322 3.1372 12.7369 2.97868 11.8369 3.00044C8.18063 3.08669 5.23031 6.13075 5.25 9.787C5.25343 10.8057 5.4885 11.8102 5.93743 12.7247C6.38635 13.6391 7.03738 14.4394 7.84125 15.0651C8.2026 15.346 8.49489 15.7059 8.69574 16.1172C8.89658 16.5285 9.00066 16.9802 9 17.4379V18.0004H15V17.4379C15.001 16.9789 15.1069 16.5262 15.3095 16.1144C15.5121 15.7025 15.8061 15.3423 16.1691 15.0614C16.9754 14.4312 17.6271 13.6252 18.0744 12.7047C18.5217 11.7843 18.7528 10.7738 18.75 9.75044ZM17.2397 8.87482C17.0452 7.78853 16.5226 6.78791 15.7422 6.00766C14.9618 5.22741 13.961 4.705 12.8747 4.51075C12.7776 4.49438 12.6781 4.4973 12.5821 4.51934C12.4861 4.54139 12.3954 4.58213 12.3151 4.63924C12.2349 4.69634 12.1666 4.7687 12.1143 4.85218C12.062 4.93566 12.0267 5.02862 12.0103 5.12575C11.9939 5.22289 11.9969 5.3223 12.0189 5.41831C12.0409 5.51432 12.0817 5.60505 12.1388 5.68531C12.1959 5.76558 12.2683 5.83381 12.3517 5.88611C12.4352 5.93841 12.5282 5.97376 12.6253 5.99013C14.1788 6.25169 15.4969 7.56982 15.7603 9.12607C15.79 9.30074 15.8806 9.45927 16.0159 9.57356C16.1513 9.68785 16.3228 9.75051 16.5 9.75044C16.5424 9.75019 16.5847 9.74674 16.6266 9.74013C16.8226 9.70666 16.9973 9.5967 17.1123 9.43443C17.2273 9.27216 17.2731 9.07087 17.2397 8.87482Z" fill="#525252"/>
</svg>
