<svg width="94" height="94" viewBox="0 0 94 94" fill="none" xmlns="http://www.w3.org/2000/svg">
<path d="M15.7101 81.9287H78.2899C79.3063 81.9285 80.3053 81.6647 81.1892 81.1629C82.0731 80.6611 82.8117 79.9386 83.3328 79.066C83.854 78.1934 84.1398 77.2005 84.1624 76.1843C84.185 75.1682 83.9436 74.1635 83.4617 73.2686L52.1737 15.1612C49.954 11.0413 44.046 11.0413 41.8264 15.1612L10.5383 73.2686C10.0565 74.1635 9.81504 75.1682 9.83763 76.1843C9.86023 77.2005 10.1461 78.1934 10.6672 79.066C11.1883 79.9386 11.9269 80.6611 12.8109 81.1629C13.6948 81.6647 14.6937 81.9285 15.7101 81.9287Z" stroke="#F4A316" stroke-width="4" stroke-linecap="round" stroke-linejoin="round"/>
<path d="M45.9462 35.8727L47 58.2712L48.052 35.8819C48.0585 35.7388 48.0358 35.5958 47.9851 35.4618C47.9345 35.3277 47.8571 35.2054 47.7576 35.1023C47.6581 34.9992 47.5386 34.9175 47.4065 34.8621C47.2743 34.8068 47.1323 34.7789 46.989 34.7803C46.8483 34.7817 46.7092 34.8113 46.58 34.8673C46.4509 34.9233 46.3343 35.0046 46.2371 35.1064C46.1399 35.2083 46.064 35.3285 46.0141 35.4601C45.9641 35.5917 45.941 35.732 45.9462 35.8727Z" stroke="#F4A316" stroke-width="4" stroke-linecap="round" stroke-linejoin="round"/>
<path d="M47 72.9326C46.2738 72.9326 45.5639 72.7173 44.96 72.3138C44.3562 71.9103 43.8855 71.3369 43.6076 70.6659C43.3297 69.995 43.257 69.2567 43.3987 68.5444C43.5404 67.8321 43.8901 67.1779 44.4036 66.6643C44.9171 66.1508 45.5714 65.8011 46.2837 65.6594C46.9959 65.5177 47.7342 65.5905 48.4052 65.8684C49.0761 66.1463 49.6496 66.6169 50.0531 67.2208C50.4565 67.8246 50.6719 68.5345 50.6719 69.2607C50.6719 70.2346 50.285 71.1685 49.5964 71.8572C48.9078 72.5458 47.9738 72.9326 47 72.9326Z" fill="#F4A316"/>
</svg>
