<svg width="94" height="94" viewBox="0 0 94 94" fill="none" xmlns="http://www.w3.org/2000/svg">
<path d="M21.886 42.2258L7.83301 81.796L47.4032 67.78M15.2293 11.5312H15.2663M81.796 30.0219H81.833M55.909 7.83301H55.946M81.796 74.3997H81.833M81.796 7.83301L73.5122 10.6066C71.1542 11.3921 69.1422 12.9721 67.8201 15.0767C66.498 17.1812 65.9479 19.6796 66.2638 22.1448C66.6336 25.3253 64.1558 28.1728 60.9015 28.1728H59.4962C56.3158 28.1728 53.5791 30.3917 52.9874 33.4982L52.2108 37.4182M81.796 48.5127L78.7635 47.2923C75.5831 46.0349 72.0329 48.0319 71.4412 51.3972C71.0344 53.9859 68.7785 55.909 66.1528 55.909H63.3053M41.1164 7.83301L42.3368 10.8655C43.5941 14.0459 41.5971 17.5961 38.2318 18.1878C35.6431 18.5576 33.7201 20.8505 33.7201 23.4762V26.3238" stroke="#1DC31D" stroke-width="4" stroke-linecap="round" stroke-linejoin="round"/>
<path d="M41.1164 48.5121C48.2538 55.6495 51.5822 63.9334 48.5127 67.0028C45.4432 70.0723 37.1594 66.744 30.0219 59.6065C22.8845 52.4691 19.5562 44.1852 22.6256 41.1158C25.6951 38.0463 33.979 41.3746 41.1164 48.5121Z" stroke="#1DC31D" stroke-width="4" stroke-linecap="round" stroke-linejoin="round"/>
</svg>
