<svg width="94" height="94" viewBox="0 0 94 94" fill="none" xmlns="http://www.w3.org/2000/svg">
<path d="M36.4166 40.5282L49.8106 50.5757C50.6404 51.1981 51.6748 51.4837 52.7064 51.3755C53.7379 51.2672 54.6904 50.773 55.373 49.992L81.6388 19.9727" stroke="#4F46E5" stroke-width="5" stroke-linecap="round"/>
<path d="M85.75 48.7503C85.7501 56.4814 83.3286 64.0183 78.8255 70.3024C74.3224 76.5866 67.9639 81.3024 60.6431 83.7874C53.3223 86.2725 45.407 86.4019 38.0089 84.1576C30.6108 81.9133 24.1015 77.4079 19.3953 71.2744C14.6891 65.1408 12.0224 57.6871 11.7698 49.9602C11.5171 42.2332 13.6912 34.6213 17.9867 28.1934C22.2821 21.7654 28.4832 16.8445 35.7189 14.1217C42.9546 11.3988 50.8614 11.0109 58.3289 13.0124" stroke="#4F46E5" stroke-width="5" stroke-linecap="round"/>
</svg>
