<svg width="26" height="26" viewBox="0 0 26 26" fill="none" xmlns="http://www.w3.org/2000/svg">
<path d="M23.7189 14.4454C23.6147 14.3409 23.484 14.2668 23.3408 14.231C23.1977 14.1953 23.0475 14.1991 22.9064 14.2422C21.3571 14.7106 19.7098 14.7499 18.14 14.3559C16.5702 13.9618 15.1367 13.1493 13.9922 12.0049C12.8477 10.8604 12.0352 9.42688 11.6412 7.85706C11.2472 6.28724 11.2865 4.63993 11.7548 3.09067C11.7983 2.9495 11.8025 2.79915 11.7669 2.65579C11.7313 2.51243 11.6573 2.38149 11.5528 2.27704C11.4484 2.17259 11.3174 2.09859 11.1741 2.063C11.0307 2.02741 10.8804 2.03157 10.7392 2.07504C8.59728 2.73118 6.71686 4.04616 5.36554 5.83285C4.18377 7.40185 3.46292 9.26929 3.28398 11.2254C3.10503 13.1815 3.47509 15.1487 4.35256 16.9061C5.23003 18.6635 6.58016 20.1414 8.25126 21.1737C9.92237 22.206 11.8482 22.752 13.8125 22.7501C16.1041 22.7572 18.3347 22.0122 20.1622 20.6295C21.9489 19.2782 23.2638 17.3977 23.92 15.2558C23.963 15.1152 23.9669 14.9655 23.9315 14.8228C23.8961 14.68 23.8226 14.5496 23.7189 14.4454ZM19.1851 19.3315C17.4642 20.6277 15.333 21.2587 13.1838 21.1082C11.0346 20.9577 9.01204 20.0359 7.48854 18.5125C5.96503 16.9891 5.04309 14.9667 4.89243 12.8175C4.74176 10.6683 5.37252 8.53702 6.66858 6.81598C7.51298 5.70088 8.60463 4.79696 9.85765 4.17535C9.78627 4.67629 9.75029 5.18163 9.74999 5.68762C9.75295 8.48806 10.8667 11.173 12.8469 13.1532C14.8272 15.1334 17.512 16.2472 20.3125 16.2501C20.8195 16.25 21.3259 16.214 21.8278 16.1425C21.2056 17.3957 20.301 18.4874 19.1851 19.3315Z" fill="#525252"/>
</svg>
