<svg width="28" height="28" viewBox="0 0 28 28" fill="none" xmlns="http://www.w3.org/2000/svg">
<path d="M14.4541 2.7041C17.5704 2.7041 20.5591 3.94196 22.7627 6.14551C24.9662 8.34906 26.2041 11.3378 26.2041 14.4541C26.2041 15.997 25.9 17.5247 25.3096 18.9502C24.7191 20.3758 23.8538 21.6716 22.7627 22.7627C21.6716 23.8538 20.3758 24.7191 18.9502 25.3096C17.5247 25.9 15.997 26.2041 14.4541 26.2041C12.9112 26.2041 11.3835 25.9 9.95801 25.3096C8.53243 24.7191 7.2366 23.8538 6.14551 22.7627C5.05442 21.6716 4.18913 20.3758 3.59863 18.9502C3.00823 17.5247 2.7041 15.997 2.7041 14.4541C2.7041 11.3378 3.94196 8.34906 6.14551 6.14551C8.34906 3.94196 11.3378 2.7041 14.4541 2.7041Z" stroke="#0A0836" stroke-width="1.5" stroke-linecap="round" stroke-linejoin="round"/>
<path d="M14.8789 18.6866V9.3125L11.6565 11.656" stroke="#0A0836" stroke-width="1.5" stroke-linecap="round" stroke-linejoin="round"/>
</svg>
