<svg width="28" height="28" viewBox="0 0 28 28" fill="none" xmlns="http://www.w3.org/2000/svg">
<path d="M1.41309 14C1.41309 7.04815 7.04815 1.41309 14 1.41309C20.9519 1.41309 26.5869 7.04815 26.5869 14C26.5869 20.9519 20.9519 26.5869 14 26.5869C7.04815 26.5869 1.41309 20.9519 1.41309 14ZM15.9364 8.83614C15.9365 8.65752 15.8872 8.48235 15.7939 8.33002C15.7006 8.17769 15.567 8.05414 15.4079 7.97303C15.2487 7.89192 15.0703 7.85642 14.8922 7.87045C14.7141 7.88448 14.5434 7.94749 14.3989 8.05252L10.8488 10.6345C10.6409 10.7854 10.5016 11.0128 10.4614 11.2665C10.4212 11.5203 10.4835 11.7796 10.6345 11.9874C10.7854 12.1952 11.0128 12.3345 11.2665 12.3747C11.5203 12.4149 11.7796 12.3527 11.9874 12.2017L14.0013 10.7377V19.1639C14.0013 19.4207 14.1033 19.6669 14.2849 19.8485C14.4665 20.0301 14.7127 20.1321 14.9695 20.1321C15.2263 20.1321 15.4726 20.0301 15.6542 19.8485C15.8357 19.6669 15.9377 19.4207 15.9377 19.1639L15.9364 8.83614Z" fill="#0A0836"/>
</svg>
