<svg width="26" height="26" viewBox="0 0 26 26" fill="none" xmlns="http://www.w3.org/2000/svg">
<path d="M4.875 4.5625H21.125C21.6389 4.5625 22.1318 4.76653 22.4951 5.12988C22.8585 5.49323 23.0625 5.98614 23.0625 6.5V17.875C23.0625 18.3889 22.8585 18.8818 22.4951 19.2451C22.1318 19.6085 21.6389 19.8125 21.125 19.8125H13.3125V22.4375H16.25C16.3329 22.4375 16.4121 22.4707 16.4707 22.5293C16.5293 22.5879 16.5625 22.6671 16.5625 22.75C16.5625 22.8329 16.5293 22.9121 16.4707 22.9707C16.4121 23.0293 16.3329 23.0625 16.25 23.0625H9.75C9.66712 23.0625 9.5879 23.0293 9.5293 22.9707C9.47069 22.9121 9.4375 22.8329 9.4375 22.75C9.4375 22.6671 9.47069 22.5879 9.5293 22.5293C9.5879 22.4707 9.66712 22.4375 9.75 22.4375H12.6875V19.8125H4.875C4.36114 19.8125 3.86823 19.6085 3.50488 19.2451C3.14153 18.8818 2.9375 18.3889 2.9375 17.875V6.5L2.94727 6.30859C2.99129 5.86503 3.18693 5.44783 3.50488 5.12988C3.86823 4.76653 4.36114 4.5625 4.875 4.5625ZM3.5625 17.875C3.5625 18.2231 3.70112 18.5566 3.94727 18.8027C4.19341 19.0489 4.5269 19.1875 4.875 19.1875H21.125C21.4731 19.1875 21.8066 19.0489 22.0527 18.8027C22.2989 18.5566 22.4375 18.2231 22.4375 17.875V15.75H3.5625V17.875ZM4.875 5.1875C4.5269 5.1875 4.19341 5.32612 3.94727 5.57227C3.70112 5.81841 3.5625 6.1519 3.5625 6.5V15.125H22.4375V6.5C22.4375 6.1519 22.2989 5.81841 22.0527 5.57227C21.8066 5.32612 21.4731 5.1875 21.125 5.1875H4.875Z" fill="#292929" stroke="#666666"/>
</svg>
