<svg width="26" height="26" viewBox="0 0 26 26" fill="none" xmlns="http://www.w3.org/2000/svg">
<path d="M24.375 5.68756V10.5626C24.375 10.7781 24.2894 10.9847 24.137 11.1371C23.9846 11.2895 23.778 11.3751 23.5625 11.3751H18.6875C18.472 11.3751 18.2653 11.2895 18.113 11.1371C17.9606 10.9847 17.875 10.7781 17.875 10.5626C17.875 10.3471 17.9606 10.1404 18.113 9.98804C18.2653 9.83567 18.472 9.75006 18.6875 9.75006H21.4703L18.7698 7.276L18.7444 7.25163C17.6151 6.12275 16.1782 5.35165 14.6132 5.03466C13.0482 4.71768 11.4245 4.86885 9.94488 5.46931C8.4653 6.06976 7.19545 7.09287 6.29396 8.41082C5.39246 9.72878 4.8993 11.2831 4.87607 12.8798C4.85284 14.4764 5.30057 16.0444 6.16334 17.388C7.02611 18.7317 8.26566 19.7913 9.72714 20.4345C11.1886 21.0778 12.8072 21.2761 14.3808 21.0048C15.9544 20.7335 17.4131 20.0045 18.5748 18.909C18.7314 18.7608 18.9405 18.681 19.156 18.687C19.3715 18.693 19.5758 18.7843 19.7239 18.941C19.8721 19.0976 19.9519 19.3067 19.9459 19.5222C19.9399 19.7377 19.8486 19.942 19.6919 20.0901C17.8856 21.8032 15.4894 22.7557 13 22.7501H12.8659C11.2691 22.7282 9.70209 22.3144 8.30262 21.5451C6.90315 20.7758 5.71408 19.6745 4.83991 18.338C3.96573 17.0016 3.43323 15.4708 3.28919 13.8804C3.14515 12.2899 3.394 10.6884 4.01385 9.21661C4.6337 7.74484 5.60558 6.44785 6.84407 5.43964C8.08256 4.43144 9.54975 3.74288 11.1167 3.43449C12.6836 3.12611 14.3023 3.20733 15.8304 3.67103C17.3586 4.13472 18.7495 4.96669 19.8808 6.09381L22.75 8.71413V5.68756C22.75 5.47207 22.8356 5.26541 22.988 5.11304C23.1403 4.96067 23.347 4.87506 23.5625 4.87506C23.778 4.87506 23.9846 4.96067 24.137 5.11304C24.2894 5.26541 24.375 5.47207 24.375 5.68756Z" fill="black"/>
</svg>
