<svg width="24" height="24" viewBox="0 0 24 24" fill="none" xmlns="http://www.w3.org/2000/svg">
<path d="M12 4C10.4177 4 8.871 4.46919 7.55541 5.34824C6.23982 6.22729 5.21444 7.47672 4.60894 8.93853C4.00344 10.4003 3.84501 12.0089 4.15369 13.5607C4.46237 15.1126 5.2243 16.538 6.34312 17.6569C7.46194 18.7757 8.8874 19.5376 10.4392 19.8463C11.9911 20.155 13.5996 19.9965 15.0614 19.391C16.5232 18.7855 17.7727 17.7602 18.6517 16.4446C19.5308 15.129 20 13.5822 20 12C19.9977 9.87895 19.1542 7.84542 17.6543 6.34562C16.1545 4.84581 14.121 4.00224 12 4ZM15.5123 10.5892L11.2046 14.8969C11.1474 14.9541 11.0796 14.9995 11.0049 15.0305C10.9302 15.0615 10.8501 15.0774 10.7692 15.0774C10.6883 15.0774 10.6083 15.0615 10.5335 15.0305C10.4588 14.9995 10.391 14.9541 10.3338 14.8969L8.48766 13.0508C8.37219 12.9353 8.30732 12.7787 8.30732 12.6154C8.30732 12.4521 8.37219 12.2955 8.48766 12.18C8.60314 12.0645 8.75975 11.9997 8.92305 11.9997C9.08635 11.9997 9.24296 12.0645 9.35843 12.18L10.7692 13.5915L14.6415 9.71846C14.6987 9.66128 14.7666 9.61593 14.8413 9.58499C14.916 9.55404 14.996 9.53812 15.0769 9.53812C15.1578 9.53812 15.2378 9.55404 15.3125 9.58499C15.3872 9.61593 15.4551 9.66128 15.5123 9.71846C15.5695 9.77564 15.6148 9.84351 15.6458 9.91822C15.6767 9.99292 15.6926 10.073 15.6926 10.1538C15.6926 10.2347 15.6767 10.3148 15.6458 10.3895C15.6148 10.4642 15.5695 10.5321 15.5123 10.5892Z" fill="#4F46E5"/>
</svg>
