<svg width="26" height="26" viewBox="0 0 26 26" fill="none" xmlns="http://www.w3.org/2000/svg">
<g clip-path="url(#clip0_808_8695)">
<path d="M12.1875 4.0625V1.625C12.1875 1.40951 12.2731 1.20285 12.4255 1.05048C12.5778 0.898102 12.7845 0.8125 13 0.8125C13.2155 0.8125 13.4222 0.898102 13.5745 1.05048C13.7269 1.20285 13.8125 1.40951 13.8125 1.625V4.0625C13.8125 4.27799 13.7269 4.48465 13.5745 4.63702C13.4222 4.7894 13.2155 4.875 13 4.875C12.7845 4.875 12.5778 4.7894 12.4255 4.63702C12.2731 4.48465 12.1875 4.27799 12.1875 4.0625ZM19.5 13C19.5 14.2856 19.1188 15.5423 18.4046 16.6112C17.6903 17.6801 16.6752 18.5132 15.4874 19.0052C14.2997 19.4972 12.9928 19.6259 11.7319 19.3751C10.471 19.1243 9.31285 18.5052 8.40381 17.5962C7.49476 16.6872 6.8757 15.529 6.6249 14.2681C6.37409 13.0072 6.50281 11.7003 6.99478 10.5126C7.48675 9.32484 8.31987 8.30968 9.38879 7.59545C10.4577 6.88122 11.7144 6.5 13 6.5C14.7233 6.50188 16.3755 7.18731 17.5941 8.40588C18.8127 9.62446 19.4981 11.2767 19.5 13ZM17.875 13C17.875 12.0358 17.5891 11.0933 17.0534 10.2916C16.5177 9.48991 15.7564 8.86506 14.8656 8.49609C13.9748 8.12711 12.9946 8.03057 12.0489 8.21867C11.1033 8.40677 10.2346 8.87107 9.55285 9.55285C8.87107 10.2346 8.40677 11.1033 8.21867 12.0489C8.03057 12.9946 8.12711 13.9748 8.49609 14.8656C8.86506 15.7564 9.48991 16.5177 10.2916 17.0534C11.0933 17.5891 12.0358 17.875 13 17.875C14.2925 17.8737 15.5317 17.3596 16.4457 16.4457C17.3596 15.5317 17.8737 14.2925 17.875 13ZM5.92516 7.07484C6.07761 7.2273 6.28439 7.31295 6.5 7.31295C6.71561 7.31295 6.92239 7.2273 7.07484 7.07484C7.2273 6.92239 7.31295 6.71561 7.31295 6.5C7.31295 6.28439 7.2273 6.07761 7.07484 5.92516L5.44984 4.30016C5.29739 4.1477 5.09061 4.06205 4.875 4.06205C4.65939 4.06205 4.45261 4.1477 4.30016 4.30016C4.1477 4.45261 4.06205 4.65939 4.06205 4.875C4.06205 5.09061 4.1477 5.29739 4.30016 5.44984L5.92516 7.07484ZM5.92516 18.9252L4.30016 20.5502C4.1477 20.7026 4.06205 20.9094 4.06205 21.125C4.06205 21.3406 4.1477 21.5474 4.30016 21.6998C4.45261 21.8523 4.65939 21.938 4.875 21.938C5.09061 21.938 5.29739 21.8523 5.44984 21.6998L7.07484 20.0748C7.15033 19.9994 7.21022 19.9097 7.25107 19.8111C7.29192 19.7125 7.31295 19.6068 7.31295 19.5C7.31295 19.3932 7.29192 19.2875 7.25107 19.1889C7.21022 19.0903 7.15033 19.0006 7.07484 18.9252C6.99935 18.8497 6.90974 18.7898 6.8111 18.7489C6.71247 18.7081 6.60676 18.687 6.5 18.687C6.39324 18.687 6.28753 18.7081 6.1889 18.7489C6.09026 18.7898 6.00065 18.8497 5.92516 18.9252ZM19.5 7.3125C19.6067 7.31258 19.7124 7.29164 19.8111 7.25086C19.9097 7.21008 19.9993 7.15027 20.0748 7.07484L21.6998 5.44984C21.8523 5.29739 21.938 5.09061 21.938 4.875C21.938 4.65939 21.8523 4.45261 21.6998 4.30016C21.5474 4.1477 21.3406 4.06205 21.125 4.06205C20.9094 4.06205 20.7026 4.1477 20.5502 4.30016L18.9252 5.92516C18.8114 6.03879 18.7339 6.18362 18.7025 6.34131C18.6711 6.49901 18.6872 6.66247 18.7487 6.81102C18.8103 6.95956 18.9145 7.0865 19.0483 7.17577C19.182 7.26504 19.3392 7.31263 19.5 7.3125ZM20.0748 18.9252C19.9224 18.7727 19.7156 18.687 19.5 18.687C19.2844 18.687 19.0776 18.7727 18.9252 18.9252C18.7727 19.0776 18.687 19.2844 18.687 19.5C18.687 19.7156 18.7727 19.9224 18.9252 20.0748L20.5502 21.6998C20.6256 21.7753 20.7153 21.8352 20.8139 21.8761C20.9125 21.9169 21.0182 21.938 21.125 21.938C21.2318 21.938 21.3375 21.9169 21.4361 21.8761C21.5347 21.8352 21.6244 21.7753 21.6998 21.6998C21.7753 21.6244 21.8352 21.5347 21.8761 21.4361C21.9169 21.3375 21.938 21.2318 21.938 21.125C21.938 21.0182 21.9169 20.9125 21.8761 20.8139C21.8352 20.7153 21.7753 20.6256 21.6998 20.5502L20.0748 18.9252ZM4.875 13C4.875 12.7845 4.7894 12.5778 4.63702 12.4255C4.48465 12.2731 4.27799 12.1875 4.0625 12.1875H1.625C1.40951 12.1875 1.20285 12.2731 1.05048 12.4255C0.898102 12.5778 0.8125 12.7845 0.8125 13C0.8125 13.2155 0.898102 13.4222 1.05048 13.5745C1.20285 13.7269 1.40951 13.8125 1.625 13.8125H4.0625C4.27799 13.8125 4.48465 13.7269 4.63702 13.5745C4.7894 13.4222 4.875 13.2155 4.875 13ZM13 21.125C12.7845 21.125 12.5778 21.2106 12.4255 21.363C12.2731 21.5153 12.1875 21.722 12.1875 21.9375V24.375C12.1875 24.5905 12.2731 24.7972 12.4255 24.9495C12.5778 25.1019 12.7845 25.1875 13 25.1875C13.2155 25.1875 13.4222 25.1019 13.5745 24.9495C13.7269 24.7972 13.8125 24.5905 13.8125 24.375V21.9375C13.8125 21.722 13.7269 21.5153 13.5745 21.363C13.4222 21.2106 13.2155 21.125 13 21.125ZM24.375 12.1875H21.9375C21.722 12.1875 21.5153 12.2731 21.363 12.4255C21.2106 12.5778 21.125 12.7845 21.125 13C21.125 13.2155 21.2106 13.4222 21.363 13.5745C21.5153 13.7269 21.722 13.8125 21.9375 13.8125H24.375C24.5905 13.8125 24.7972 13.7269 24.9495 13.5745C25.1019 13.4222 25.1875 13.2155 25.1875 13C25.1875 12.7845 25.1019 12.5778 24.9495 12.4255C24.7972 12.2731 24.5905 12.1875 24.375 12.1875Z" fill="#525252"/>
</g>
<defs>
<clipPath id="clip0_808_8695">
<rect width="26" height="26" fill="white"/>
</clipPath>
</defs>
</svg>
