<svg width="28" height="28" viewBox="0 0 28 28" fill="none" xmlns="http://www.w3.org/2000/svg">
<path d="M13.9944 2.15332C17.1107 2.15332 20.0995 3.39117 22.303 5.59473C24.5066 7.79828 25.7444 10.787 25.7444 13.9033C25.7444 15.4462 25.4403 16.9739 24.8499 18.3994C24.2594 19.825 23.3941 21.1208 22.303 22.2119C21.2119 23.303 19.9161 24.1683 18.4905 24.7588C17.065 25.3492 15.5373 25.6533 13.9944 25.6533C12.4515 25.6533 10.9238 25.3492 9.49832 24.7588C8.07275 24.1683 6.77691 23.303 5.68582 22.2119C4.59473 21.1208 3.72944 19.825 3.13895 18.3994C2.54854 16.9739 2.24442 15.4462 2.24442 13.9033C2.24442 10.787 3.48227 7.79828 5.68582 5.59473C7.88937 3.39117 10.8781 2.15332 13.9944 2.15332Z" stroke="#0A0836" stroke-width="1.5" stroke-linecap="round" stroke-linejoin="round"/>
<path d="M10.3224 11.4715C10.3224 8.11886 17.6775 8.11886 17.6775 11.4715C17.6775 11.4715 17.6775 14.0009 14 14.0009C17.6775 14.0009 17.6775 16.5302 17.6775 16.5302C17.6775 19.8829 10.3224 19.8829 10.3224 16.5302" stroke="#0A0A0A" stroke-width="1.5" stroke-linecap="round" stroke-linejoin="round"/>
</svg>
