<svg width="28" height="28" viewBox="0 0 28 28" fill="none" xmlns="http://www.w3.org/2000/svg">
<path d="M1.67862 14.0001C1.67862 7.1949 7.19481 1.67871 14 1.67871C20.8052 1.67871 26.3214 7.1949 26.3214 14.0001C26.3214 20.8053 20.8052 26.3215 14 26.3215C7.19481 26.3215 1.67862 20.8053 1.67862 14.0001ZM18.1071 11.465C18.1071 10.2835 17.5347 9.37989 16.7208 8.80236C15.9348 8.24506 14.9415 7.99737 14 7.99737C13.0585 7.99737 12.0652 8.24506 11.2792 8.80236C10.4666 9.37863 9.89287 10.2835 9.89287 11.465C9.89287 11.7164 9.99273 11.9575 10.1705 12.1352C10.3482 12.313 10.5893 12.4128 10.8407 12.4128C11.092 12.4128 11.3331 12.313 11.5109 12.1352C11.6886 11.9575 11.7885 11.7164 11.7885 11.465C11.7885 10.9671 12.0058 10.612 12.3761 10.3479C12.7754 10.0648 13.3618 9.89296 14 9.89296C14.6382 9.89296 15.2246 10.0648 15.6239 10.3479C15.9929 10.6095 16.209 10.9621 16.2115 11.4562L16.209 11.4903C16.2052 11.5282 16.1989 11.5914 16.1825 11.6685C16.1411 11.8673 16.0659 12.0576 15.96 12.2309C15.7503 12.5683 15.2751 13.0523 14 13.0523C13.7486 13.0523 13.5076 13.1522 13.3298 13.3299C13.1521 13.5076 13.0522 13.7487 13.0522 14.0001C13.0522 14.2515 13.1521 14.4925 13.3298 14.6703C13.5076 14.848 13.7486 14.9479 14 14.9479C15.2764 14.9479 15.7503 15.4319 15.96 15.7693C16.103 16.0045 16.1891 16.2697 16.2115 16.544C16.209 17.0368 15.9929 17.3907 15.6239 17.6523C15.2246 17.9354 14.6382 18.1072 14 18.1072C13.3618 18.1072 12.7754 17.9354 12.3761 17.6523C12.0058 17.3882 11.7885 17.033 11.7885 16.5351C11.7885 16.2838 11.6886 16.0427 11.5109 15.8649C11.3331 15.6872 11.092 15.5873 10.8407 15.5873C10.5893 15.5873 10.3482 15.6872 10.1705 15.8649C9.99273 16.0427 9.89287 16.2838 9.89287 16.5351C9.89287 17.7167 10.4666 18.6203 11.2792 19.1978C12.0652 19.7551 13.0585 20.0028 14 20.0028C14.9415 20.0028 15.9348 19.7551 16.7208 19.1978C17.5334 18.6216 18.1071 17.7167 18.1071 16.5351V16.5326C18.0814 15.9074 17.8961 15.2992 17.5688 14.7659C17.3901 14.4797 17.1699 14.2217 16.9154 14.0001C17.1821 13.7676 17.3982 13.5072 17.5688 13.2343C17.8961 12.701 18.0814 12.0928 18.1071 11.4676V11.465Z" fill="#0A0836"/>
</svg>
