<svg width="28" height="28" viewBox="0 0 28 28" fill="none" xmlns="http://www.w3.org/2000/svg">
<path d="M14.0234 2.27344C17.1397 2.27344 20.1285 3.51129 22.332 5.71484C24.5356 7.9184 25.7734 10.9071 25.7734 14.0234C25.7734 15.5663 25.4693 17.094 24.8789 18.5195C24.2884 19.9451 23.4231 21.2409 22.332 22.332C21.2409 23.4231 19.9451 24.2884 18.5195 24.8789C17.094 25.4693 15.5663 25.7734 14.0234 25.7734C12.4805 25.7734 10.9528 25.4693 9.52734 24.8789C8.10177 24.2884 6.80593 23.4231 5.71484 22.332C4.62376 21.2409 3.75846 19.9451 3.16797 18.5195C2.57757 17.094 2.27344 15.5663 2.27344 14.0234C2.27344 10.9071 3.51129 7.9184 5.71484 5.71484C7.9184 3.51129 10.9071 2.27344 14.0234 2.27344Z" stroke="#0A0836" stroke-width="1.5" stroke-linecap="round" stroke-linejoin="round"/>
<path d="M10.5236 12.0179C10.5236 8.30393 16.941 8.30393 16.941 12.0179C16.941 14.8213 12.7485 17.2385 10.5236 18.7677C10.5236 18.7677 14.6952 18.1717 17.4764 18.7677" stroke="#0A0A0A" stroke-width="1.5" stroke-linecap="round" stroke-linejoin="round"/>
</svg>
