<svg width="28" height="28" viewBox="0 0 28 28" fill="none" xmlns="http://www.w3.org/2000/svg">
<path d="M1.60077 13.9998C1.60077 7.15163 7.15181 1.60059 14 1.60059C20.8482 1.60059 26.3992 7.15163 26.3992 13.9998C26.3992 20.848 20.8482 26.399 14 26.399C7.15181 26.399 1.60077 20.848 1.60077 13.9998ZM11.7745 11.885C11.7745 11.1486 12.0377 10.6692 12.376 10.3653C12.7308 10.0461 13.2281 9.86674 13.7558 9.86674C14.2836 9.86674 14.7808 10.0448 15.1356 10.3653C15.4726 10.6692 15.7359 11.1486 15.7359 11.885C15.7359 12.9812 15.0186 14.1372 13.841 15.3237C12.961 16.2113 11.9538 16.9934 11.0496 17.6942C10.7614 17.918 10.4858 18.1342 10.223 18.3427C10.0689 18.4664 9.95696 18.6348 9.90272 18.8249C9.84847 19.0149 9.85458 19.217 9.9202 19.4034C9.98582 19.5898 10.1077 19.7512 10.269 19.8653C10.4303 19.9794 10.6231 20.0406 10.8207 20.0405H17.1793C17.4323 20.0405 17.6749 19.94 17.8537 19.7611C18.0326 19.5822 18.1331 19.3396 18.1331 19.0867C18.1331 18.8337 18.0326 18.5911 17.8537 18.4123C17.6749 18.2334 17.4323 18.1329 17.1793 18.1329H13.5676C14.1183 17.6789 14.6816 17.1855 15.1954 16.6666C16.4442 15.4076 17.6435 13.7785 17.6435 11.885C17.6435 10.6387 17.1729 9.63402 16.4112 8.94729C15.6647 8.27582 14.6956 7.95917 13.7558 7.95917C12.816 7.95917 11.8457 8.27582 11.0992 8.94729C10.3362 9.63402 9.86692 10.6387 9.86692 11.885C9.86692 12.1379 9.96741 12.3805 10.1463 12.5594C10.3252 12.7383 10.5677 12.8387 10.8207 12.8387C11.0737 12.8387 11.3163 12.7383 11.4951 12.5594C11.674 12.3805 11.7745 12.1379 11.7745 11.885Z" fill="#0A0836"/>
</svg>
